<?xml version="1.0"?>
<svg width="256" height="256" xmlns="http://www.w3.org/2000/svg" xmlns:svg="http://www.w3.org/2000/svg" version="1.1">
 <title id="titleID">cloud simple</title>

 <desc id="descID">AI-generated SVG illustration: cloud simple, created on https://svgstud.io</desc>
 <metadata>Created by https://svgstud.io and licensed under CC-BY-SA 4.0 license. Please attribute https://svgstud.io</metadata>
 <metadata>cloud simple</metadata>
 <metadata>7</metadata>
 <metadata>https://svgstud.io</metadata>
 <metadata id="uid">ae5ebc91b00cac53276f9ad08f00e81064acbb8b3dee2148b8eb774ddf57a4ce</metadata>
 <g class="layer">
  <title>Layer 1</title>
  <path d="m89.38,70.21c-25.03,7.74 -27.24,34.27 -27.56,33.97c-0.32,-0.31 -8.51,20.58 -9.62,20.58c-1.1,0 -30.92,5.16 -31.25,4.85c-0.32,-0.31 -15.87,27.21 -16.2,26.9c-0.32,-0.31 6.58,18.37 6.26,18.06c-0.32,-0.31 25.72,8.78 25.4,8.48c-0.32,-0.31 70.27,2.15 72.11,2.52c1.84,0.37 117.8,-2.21 117.47,-2.52c-0.32,-0.31 23.52,-14.8 23.19,-15.11c-0.32,-0.31 3.64,-17.75 3.31,-18.06c-0.32,-0.31 -11.09,-14.8 -11.09,-15.17c0,-0.37 -17.67,-5.53 -17.99,-6.2c-0.32,-0.68 -16.98,-26.23 -17.3,-26.53c-0.32,-0.31 -32.81,0.31 -33.13,0c-0.32,-0.31 -15.87,-30.28 -16.2,-30.59c-0.32,-0.31 -32.07,-10.75 -32.44,-10.75c-0.37,0 -9.94,1.84 -34.97,9.58z" fill="#efefef" id="svg_6"/>
  <path d="m129.32,187.86c-50.92,0.2 -95.43,-0.06 -98.92,-0.56c-3.49,-0.5 -7.83,-1.69 -9.66,-2.68c-1.82,-0.97 -5.34,-3.28 -7.8,-5.15c-2.46,-1.86 -5.85,-6.23 -7.53,-9.71c-2.45,-5.04 -2.91,-7.91 -2.32,-14.36c0.41,-4.44 1.78,-10.1 3.07,-12.58c1.27,-2.48 4.66,-7.09 7.51,-10.25c2.84,-3.15 8.32,-7.2 12.17,-9.01c4.93,-2.3 9.55,-3.26 15.59,-3.28c5.15,-0.01 9.15,-0.71 10,-1.76c0.78,-0.97 2.53,-5.74 3.89,-10.63c1.36,-4.87 4.78,-12.44 7.6,-16.81c2.82,-4.36 8.29,-10.77 12.17,-14.23c3.87,-3.46 11.11,-8.32 16.09,-10.78c4.97,-2.46 12.9,-5.1 17.62,-5.85c5.43,-0.88 11.95,-0.91 17.72,-0.08c5.01,0.7 11.83,2.35 15.14,3.64c3.32,1.3 8.59,4.09 11.71,6.2c3.12,2.11 8.03,6.44 10.9,9.62c2.89,3.18 6.27,7.96 7.53,10.62c2.31,4.85 2.31,4.85 12.31,4.85c5.49,0 12.91,0.99 16.48,2.21c3.57,1.22 8.43,4.19 10.78,6.61c2.37,2.41 5.62,8.01 7.24,12.45c1.61,4.43 3.96,8.33 5.21,8.67c1.26,0.35 4.66,1.02 7.56,1.51c2.97,0.5 7.51,2.84 10.38,5.36c2.8,2.46 6.23,7 7.65,10.08c1.4,3.1 2.56,8.67 2.58,12.41c0.01,3.74 -0.99,8.94 -2.24,11.57c-1.25,2.62 -5.69,7.9 -9.87,11.72c-4.19,3.84 -9.94,7.6 -12.79,8.4c-3.24,0.9 -39.92,1.57 -97.76,1.78zm-1.12,-11.78c64.99,0.15 92.55,-0.24 95.94,-1.37c2.62,-0.87 6.86,-3.15 9.44,-5.06c2.56,-1.92 5.87,-5.45 7.34,-7.87c1.47,-2.41 2.68,-6.46 2.69,-9.01c0,-2.53 -0.98,-6.53 -2.2,-8.87c-1.3,-2.53 -4.54,-5.31 -8.05,-6.9c-3.22,-1.46 -8.81,-2.68 -12.42,-2.69c-3.61,-0.01 -6.96,-0.64 -7.42,-1.41c-0.48,-0.76 -1.43,-4.87 -2.11,-9.13c-0.7,-4.27 -2.65,-9.72 -4.34,-12.1c-1.69,-2.37 -5.67,-5.49 -8.82,-6.92c-3.17,-1.44 -8.01,-2.63 -10.77,-2.65c-2.77,-0.01 -8.12,0.91 -11.9,2.06c-3.78,1.15 -7.25,2.09 -7.7,2.1c-0.46,0.01 -1.62,-2.66 -2.61,-5.94c-0.98,-3.28 -3.98,-8.96 -6.67,-12.63c-2.69,-3.68 -7.51,-8.49 -10.7,-10.69c-3.19,-2.2 -8.96,-5.07 -12.81,-6.37c-3.89,-1.32 -11.36,-2.39 -16.81,-2.41c-5.64,-0.03 -12.45,0.92 -16.05,2.24c-3.43,1.26 -9.26,4.22 -12.93,6.57c-3.68,2.37 -9.29,7.39 -12.46,11.18c-3.17,3.78 -7.02,10.18 -8.56,14.23c-1.76,4.64 -3.08,12.37 -3.57,20.99c-0.43,7.79 -1.46,14.23 -2.39,15.01c-0.9,0.74 -7.9,3.54 -15.55,6.2c-8.11,2.84 -14.45,4.34 -15.18,3.63c-0.74,-0.73 -0.36,-2.62 0.92,-4.58c1.2,-1.83 5.71,-5.18 10.01,-7.42c4.3,-2.25 7.83,-4.83 7.83,-5.74c0,-0.91 -1.29,-2.07 -2.86,-2.56c-1.58,-0.5 -5.52,-0.48 -8.75,0.07c-3.25,0.53 -8.26,2.18 -11.16,3.66c-2.9,1.47 -7.14,5.25 -9.43,8.4c-2.28,3.15 -4.54,7.79 -5.01,10.32c-0.57,3.1 0.04,6.61 1.9,10.84c1.51,3.43 4.89,7.86 7.48,9.83c2.59,1.97 6.93,3.85 9.62,4.17c2.69,0.32 45.94,0.69 96.08,0.81z" fill="#b2b2b2" fill-rule="evenodd" id="svg_2"/>
 </g>
</svg>