<svg width="24" height="24" xmlns="http://www.w3.org/2000/svg" stroke-linejoin="round" stroke-linecap="round" stroke-width="2" stroke="#000000" fill="none">

 <g>
  <title>Layer 1</title>
  <path id="svg_1" d="m22,19a2,2 0 0 1 -2,2l-16,0a2,2 0 0 1 -2,-2l0,-14a2,2 0 0 1 2,-2l5,0l2,3l9,0a2,2 0 0 1 2,2l0,11z"/>
  <path stroke-width="1.5" stroke="null" d="m17.54461,17.28471c0.42271,-0.72464 0.60387,-1.50967 0.42271,-2.35508c-0.36232,-1.20774 -1.44928,-2.11354 -2.65702,-2.11354l-0.72464,0c-0.42271,-1.8116 -1.93238,-3.14011 -3.74398,-3.38166c-1.8116,-0.18116 -3.56282,0.78503 -4.40823,2.41547c-0.72464,1.50967 -0.60387,3.92514 0.30193,5.31404m2.83818,1.32851"/>
 </g>
</svg>